<?xml version="1.0" standalone="no"?>
<!DOCTYPE svg PUBLIC "-//W3C//DTD SVG 20010904//EN"
 "http://www.w3.org/TR/2001/REC-SVG-20010904/DTD/svg10.dtd">

<svg version="1.0" xmlns="http://www.w3.org/2000/svg"
 width="192" height="192" viewBox="0 0 512 512">
 
 <style xmlns="http://www.w3.org/2000/svg">
  :root {
    fill: #000;
  }
  @media (prefers-color-scheme: dark) {
    :root {
      fill: #fff;
    }
  }
</style>

  <g transform="translate(0,512) scale(0.1,-0.1)"
  stroke="none">
  <path d="M2390 4853 c-284 -21 -577 -102 -846 -234 -659 -322 -1120 -939
  -1249 -1673 -97 -549 28 -1159 334 -1628 375 -575 961 -943 1644 -1033 136
  -17 394 -20 535 -4 287 31 598 128 849 265 659 359 1098 1017 1184 1774 15
  130 6 481 -14 600 -69 392 -221 746 -449 1042 -468 607 -1230 948 -1988 891z
  m321 -123 c890 -68 1637 -653 1913 -1495 80 -247 101 -392 100 -690 -1 -189
  -5 -251 -23 -349 -166 -919 -858 -1610 -1779 -1778 -145 -26 -520 -32 -667 -9
  -724 108 -1329 548 -1645 1195 -133 272 -199 519 -219 818 -34 513 117 1024
  426 1443 86 116 322 352 438 438 337 249 723 393 1140 426 147 12 168 12 316
  1z"/>
  <path d="M952 3818 c-94 -144 -142 -285 -142 -418 0 -167 57 -287 210 -441 86
  -87 139 -128 295 -232 173 -114 270 -194 304 -252 11 -18 12 -18 8 7 -7 45 12
  138 38 191 31 60 31 60 0 125 -34 74 -114 154 -306 308 -255 204 -339 306
  -380 459 -22 87 -21 164 4 263 8 28 13 52 12 52 -2 0 -21 -28 -43 -62z"/>
  <path d="M3280 3547 c-146 -60 -258 -172 -509 -505 -231 -307 -331 -399 -473
  -436 l-52 -13 64 -12 c36 -7 122 -15 191 -18 229 -10 303 30 455 242 93 130
  206 248 281 295 38 23 40 28 67 131 15 58 43 142 62 185 20 43 42 96 49 117
  l14 37 -47 0 c-26 0 -72 -11 -102 -23z"/>
  <path d="M3937 3546 c-149 -62 -260 -173 -532 -536 -128 -170 -262 -312 -337
  -357 -29 -18 -78 -39 -108 -46 l-54 -14 64 -13 c36 -6 121 -14 188 -17 151 -7
  228 10 301 66 56 42 74 63 166 191 80 113 168 206 251 266 57 40 62 47 73 100
  19 85 48 169 92 267 21 48 39 94 39 102 0 23 -76 18 -143 -9z"/>
  <path d="M2565 3320 c-92 -41 -199 -78 -292 -100 -46 -10 -55 -17 -89 -68 -52
  -80 -144 -167 -265 -253 -172 -122 -208 -162 -244 -269 -25 -72 -24 -240 1
  -370 l18 -95 7 48 c21 134 132 258 448 497 305 231 413 337 477 464 34 70 58
  186 38 186 -5 0 -49 -18 -99 -40z"/>
  <path d="M827 3133 c-32 -51 -33 -493 -2 -693 44 -289 129 -508 244 -632 45
  -49 113 -98 136 -98 3 0 5 234 5 519 l0 520 -58 35 c-112 68 -236 199 -299
  317 -11 22 -23 36 -26 32z"/>
  <path d="M2581 3035 c-39 -57 -191 -196 -279 -255 l-81 -55 -1 -54 0 -53 38 7
  c84 16 144 55 255 167 l107 109 -1 62 c-1 34 -4 72 -7 84 -7 22 -8 21 -31 -12z"/>
  <path d="M2731 2563 c-35 -17 -79 -28 -121 -31 l-66 -4 64 -62 c43 -41 104
  -122 187 -246 187 -283 333 -423 502 -481 55 -19 88 -24 173 -24 120 1 184 16
  301 74 75 38 201 119 165 107 -85 -29 -230 -36 -307 -16 -72 19 -170 76 -241
  140 -37 34 -132 141 -210 238 -163 202 -232 272 -302 307 -61 31 -76 30 -145
  -2z"/>
  <path d="M3385 2562 c-32 -16 -73 -27 -117 -30 l-66 -5 60 -56 c42 -38 100
  -115 185 -243 68 -102 156 -221 195 -263 l72 -77 66 6 c36 4 106 15 155 25 50
  10 91 17 93 16 2 -2 -39 -32 -92 -66 -53 -35 -96 -67 -96 -72 0 -14 121 -64
  188 -77 80 -16 196 -8 282 21 76 25 222 98 265 133 l30 25 -55 -15 c-67 -18
  -201 -20 -261 -4 -77 21 -178 81 -254 152 -41 38 -132 142 -203 231 -144 181
  -236 273 -305 305 -57 27 -78 26 -142 -6z"/>
  <path d="M2220 2140 l0 -432 40 32 c151 120 265 324 321 577 21 96 21 103 5
  128 -38 58 -86 80 -217 99 -68 10 -130 21 -136 23 -10 4 -13 -85 -13 -427z"/>
  </g>
</svg>
